<svg width="64" height="17" viewBox="0 0 64 17" fill="none" xmlns="http://www.w3.org/2000/svg">
<path fill-rule="evenodd" clip-rule="evenodd" d="M20.0597 12.2155C20.0597 12.2155 22.7918 8.34977 22.847 8.2643C22.9137 8.12514 22.9137 7.96191 22.847 7.82275C22.8192 7.77143 22.5859 7.35835 22.295 6.84315L22.2947 6.84261C21.7782 5.92777 21.0801 4.69134 21.0271 4.58657C20.9441 4.42276 20.8405 4.09943 20.9884 3.44707C21.1362 2.7947 21.5273 2.60811 21.7028 2.57962C21.8783 2.55113 22.0497 2.6195 22.2556 2.94284C22.3719 3.12545 22.9532 4.02544 23.4501 4.79478L23.4508 4.79586L23.4518 4.7974L23.4522 4.7981C23.8343 5.38958 24.1659 5.90304 24.1972 5.95254C24.269 6.06649 24.3837 6.09498 24.4735 5.96394C24.5634 5.8329 27.9545 1.01566 28.119 0.783483C28.2834 0.55131 28.7022 0.0855393 29.1029 0.0242911C29.5037 -0.0369571 29.8077 0.0128961 30.0882 0.227977C30.4197 0.498263 30.5972 0.92208 30.5608 1.35608C30.5111 1.82043 30.2637 2.2221 29.8699 2.73915C29.476 3.2562 25.9052 7.73159 25.8126 7.83984C25.7289 7.96116 25.7006 8.11406 25.7352 8.25861C25.7545 8.38284 25.9283 8.6317 26.0275 8.77361L26.0275 8.77364C26.042 8.79441 26.0549 8.81289 26.0655 8.82836C26.1484 8.94943 28.2917 12.2469 28.2917 12.2469L29.436 4.10798H31.6581L30.3439 13.3849H29.0463L30.1946 15.1483L27.9297 17C27.9297 17 24.2566 10.398 24.1985 10.3054L24.1948 10.2994C24.137 10.2071 24.0565 10.0782 23.8793 10.3054C23.6983 10.5376 20.8391 14.1769 20.8391 14.1769L20.0597 12.2155ZM25.0539 0.192367C24.3782 0.192367 23.6679 0.98432 23.4689 1.96002C23.2699 2.93287 23.6582 3.72909 24.334 3.72909C25.0097 3.72909 25.72 2.93571 25.919 1.96002C26.118 0.98432 25.7297 0.192367 25.0539 0.192367ZM0.945223 6.7858C0.867836 7.31852 0 13.3821 0 13.3821H2.352C2.352 13.3821 3.12034 7.89539 3.22537 7.23875C3.33039 6.58212 3.3981 6.37273 3.69936 5.94115C4.00061 5.50956 4.7427 5.44831 5.15589 5.72037C5.56908 5.99242 5.5138 6.74022 5.47511 7.05786C5.43641 7.37549 4.57825 13.3821 4.57825 13.3821H6.91505C6.91505 13.3821 7.71241 7.78287 7.88238 6.73452C8.05236 5.68618 8.69218 5.58933 8.99896 5.56654C9.30575 5.54375 9.71203 5.62351 9.93866 5.92975C10.1637 6.23378 10.0727 6.92246 10.0281 7.25992L10.0281 7.25993L10.0281 7.25995L10.0281 7.25996L10.0281 7.25998L10.0281 7.25999L10.0281 7.26001L10.0271 7.26724C9.98288 7.60197 9.16341 13.3821 9.16341 13.3821H11.5126C11.5126 13.3821 12.3432 7.51651 12.4371 6.84705C12.494 6.47232 12.5009 6.09135 12.4579 5.71467C12.3211 5.0737 12.2008 4.85292 11.8374 4.48401C11.474 4.1151 10.6434 3.82168 9.75348 3.82168C9.1268 3.79685 8.50327 3.9247 7.93352 4.19486C7.63015 4.31574 7.34956 4.49023 7.10437 4.71049C6.9384 4.53846 6.74948 4.39169 6.54332 4.27463C6.20199 4.08234 5.60777 3.82737 4.59622 3.82737C3.68531 3.82418 2.80146 4.1463 2.09497 4.73897C1.43994 5.27739 1.02261 6.25309 0.945223 6.7858ZM17.09 8.86539C17.4631 8.83121 17.9813 8.79702 17.9813 8.79702L17.5958 11.4051C17.5958 11.4051 16.6713 12.0631 15.6819 11.9947C14.6924 11.9264 14.3842 11.294 14.3842 10.7242C14.3658 10.0498 14.783 9.44431 15.4069 9.24C15.9476 9.03262 16.5144 8.90646 17.09 8.86539ZM14.1203 4.71618C14.1203 4.71618 14.8113 4.20626 16.5511 3.9342C18.2909 3.66215 18.9003 4.00257 19.6742 4.59226C20.448 5.18196 20.4439 6.20181 20.3568 6.84847C20.2698 7.49514 19.5968 12.187 19.5968 12.187L19.004 12.6628C18.266 13.2183 17.2545 13.5245 16.0342 13.6385C14.814 13.7524 13.24 13.422 12.6472 12.0389C12.0544 10.6558 12.4054 8.90527 14.054 8.03783C15.7026 7.17038 18.19 7.22166 18.19 7.22166C18.19 7.22166 18.3766 6.45107 17.9703 6.08216C17.5582 5.70399 17.1312 5.77801 16.2884 5.92411C16.2042 5.93869 16.116 5.95399 16.0232 5.96964C15.2803 6.11669 14.5542 6.34247 13.8564 6.64336L14.1203 4.71618ZM32.1348 6.7858C32.0574 7.31852 31.1882 13.3821 31.1882 13.3821H33.5361C33.5361 13.3821 34.3044 7.89539 34.4094 7.23875C34.5145 6.58212 34.5794 6.37273 34.882 5.94115C35.1847 5.50956 35.9281 5.44831 36.3399 5.72037C36.7518 5.99242 36.6979 6.74022 36.6592 7.05786C36.6205 7.37549 35.7623 13.3821 35.7623 13.3821H38.0991C38.0991 13.3821 38.9034 7.78287 39.0734 6.73452C39.2433 5.68618 39.8804 5.58933 40.1886 5.56654C40.4967 5.54375 40.9044 5.62351 41.1296 5.92975C41.3499 6.22928 41.2636 6.90214 41.2196 7.2447L41.2167 7.26724C41.1739 7.60197 40.3544 13.3821 40.3544 13.3821H42.7036C42.7036 13.3821 43.5341 7.51651 43.6267 6.84705C43.6844 6.47241 43.6918 6.09139 43.6488 5.71467C43.512 5.0737 43.3918 4.85292 43.0284 4.48401C42.6649 4.1151 41.8344 3.82168 40.9445 3.82168C40.3173 3.79705 39.6934 3.92489 39.1231 4.19486C38.8198 4.31582 38.5392 4.4903 38.294 4.71049C38.128 4.53846 37.9391 4.39169 37.7329 4.27463C37.3916 4.08234 36.7974 3.82737 35.7858 3.82737C34.8749 3.82418 33.991 4.1463 33.2846 4.73897C32.6295 5.27739 32.2122 6.25309 32.1348 6.7858ZM44.8981 4.12364H47.2252C47.2252 4.12364 46.3615 10.1986 46.2952 10.653C46.2289 11.1074 46.2731 11.8195 46.6807 12.0247C47.0884 12.2298 47.7476 12.1942 48.0226 11.9449C48.2976 11.6956 48.5505 11.4464 48.6928 10.653C48.8351 9.8596 49.6491 4.11225 49.6491 4.11225H51.9486C51.9486 4.11225 51.1678 9.71147 51.0793 10.3909C50.9909 11.0703 50.6731 12.2169 49.9738 12.7952C49.2746 13.3735 48.5118 13.667 46.6752 13.667C44.8387 13.667 44.1228 12.5275 44.0137 11.7968C43.9045 11.0661 43.9805 10.3581 44.1339 9.35965C44.2873 8.36116 44.8981 4.12222 44.8981 4.12222V4.12364ZM52.4585 6.7858C52.3811 7.31852 51.5119 13.3821 51.5119 13.3821H53.8597C53.8597 13.3821 54.6281 7.89539 54.7331 7.23875C54.8381 6.58212 54.9058 6.37273 55.2071 5.94115C55.5083 5.50956 56.2518 5.44831 56.6636 5.72037C57.0754 5.99242 57.0215 6.74022 56.9828 7.05786C56.9441 7.37549 56.086 13.3821 56.086 13.3821H58.4228C58.4228 13.3821 59.2271 7.78287 59.397 6.73452C59.567 5.68618 60.2041 5.58933 60.5122 5.56654C60.8204 5.54375 61.2267 5.62351 61.4533 5.92975C61.6783 6.2338 61.5873 6.92255 61.5427 7.25999L61.5417 7.26724C61.4975 7.60197 60.6781 13.3821 60.6781 13.3821H63.0273C63.0273 13.3821 63.8578 7.51651 63.9504 6.84705C64.008 6.47241 64.0155 6.09139 63.9725 5.71467C63.8357 5.0737 63.7155 4.85292 63.352 4.48401C62.9886 4.1151 62.1581 3.82168 61.2667 3.82168C60.6401 3.79717 60.0166 3.92501 59.4468 4.19486C59.1432 4.31534 58.8626 4.48987 58.6176 4.71049C58.4517 4.53846 58.2627 4.39169 58.0566 4.27463C57.7152 4.08234 57.121 3.82737 56.1095 3.82737C55.1986 3.82418 54.3147 4.1463 53.6082 4.73897C52.9532 5.27739 52.5359 6.25309 52.4585 6.7858Z" fill="#EB008B"/>
</svg>
