<svg width="60" height="14" viewBox="0 0 60 14" fill="none" xmlns="http://www.w3.org/2000/svg">
<path d="M12.9625 5.15592H8.35269C8.35289 5.15273 8.35289 5.14954 8.35269 5.14635V0.588944C8.36202 0.430714 8.30266 0.276076 8.18957 0.164C8.07647 0.0519234 7.92043 -0.00690234 7.76077 0.00234675H5.76425C5.60311 -0.0125988 5.44363 0.0443841 5.32919 0.157796C5.21475 0.271207 5.15725 0.429253 5.17233 0.588944V5.14498V5.15456H0.592895C0.432212 5.14286 0.274396 5.20134 0.160868 5.31464C0.0473406 5.42793 -0.0105626 5.58473 0.00235617 5.74389V7.72246C-0.0126626 7.88189 0.0446611 8.03967 0.158779 8.15303C0.272897 8.26639 0.431984 8.32356 0.592895 8.30905H5.17233C5.17158 8.31358 5.17158 8.3182 5.17233 8.32273V12.8487C5.15725 13.0084 5.21475 13.1664 5.32919 13.2798C5.44363 13.3932 5.60311 13.4502 5.76425 13.4353H7.76077C7.92191 13.4502 8.08139 13.3932 8.19583 13.2798C8.31027 13.1664 8.36777 13.0084 8.35269 12.8487V8.32273C8.35299 8.31817 8.35299 8.31361 8.35269 8.30905H12.9625C13.1236 8.324 13.2831 8.26702 13.3975 8.1536C13.512 8.04019 13.5695 7.88215 13.5544 7.72246V5.74525C13.5641 5.58668 13.505 5.43156 13.3919 5.31897C13.2788 5.20638 13.1225 5.14704 12.9625 5.15592Z" fill="#7DC142"/>
<path fill-rule="evenodd" clip-rule="evenodd" d="M23.8047 7.77981V10.0154C23.8047 12.2524 22.171 13.7866 19.9358 13.7839C19.298 13.7839 18.8654 13.599 18.5707 13.473C18.4185 13.408 18.3031 13.3586 18.2152 13.3586C18.1302 13.3586 18.1081 13.4422 18.0835 13.5353C18.0526 13.6522 18.0178 13.7839 17.8496 13.7839H16.0242C15.8738 13.7839 15.8089 13.7196 15.8089 13.5706V0.580668C15.8089 0.430258 15.8738 0.36736 16.0242 0.36736H18.0441C18.1033 0.359621 18.1627 0.379592 18.2049 0.421392C18.247 0.463193 18.2672 0.522062 18.2594 0.580668V4.22194C18.2594 4.37099 18.3229 4.45576 18.4098 4.45576C18.4984 4.45576 18.6205 4.40508 18.7805 4.3387C19.0839 4.21282 19.5232 4.03051 20.1276 4.03051C22.1917 4.03051 23.8047 5.62759 23.8047 7.77981ZM20.901 11.1056C21.1896 10.8162 21.3455 10.4221 21.3321 10.0154V7.77981C21.3072 6.95669 20.6267 6.30221 19.7958 6.30221C18.9648 6.30221 18.2843 6.95669 18.2594 7.77981V10.0113C18.2534 10.4198 18.4144 10.8133 18.7057 11.1022C18.997 11.3912 19.3939 11.5511 19.8061 11.5455C20.2165 11.554 20.6124 11.3949 20.901 11.1056Z" fill="#7DC142"/>
<path fill-rule="evenodd" clip-rule="evenodd" d="M32.5951 7.58719V10.2289C32.5951 12.4878 31.0222 14.0001 28.5938 14.0001C26.1654 14.0001 24.5746 12.4878 24.5746 10.2289V7.58719C24.5746 5.33105 26.1834 3.81738 28.5938 3.81738C31.0043 3.81738 32.5951 5.33105 32.5951 7.58719ZM29.368 11.5861C29.8503 11.3037 30.1394 10.7838 30.1226 10.2289V7.58719C30.1394 7.03236 29.8503 6.5124 29.368 6.23007C28.8858 5.94774 28.2867 5.94774 27.8044 6.23007C27.3222 6.5124 27.0331 7.03236 27.0499 7.58719V10.2289C27.0331 10.7838 27.3222 11.3037 27.8044 11.5861C28.2867 11.8684 28.8858 11.8684 29.368 11.5861Z" fill="#7DC142"/>
<path d="M41.4725 13.7869H39.4305C39.2787 13.7869 39.2152 13.7226 39.2152 13.5736V7.78006C39.1903 6.95694 38.5098 6.30245 37.6789 6.30245C36.8479 6.30245 36.1674 6.95694 36.1425 7.78006V13.5736C36.1425 13.7226 36.0777 13.7869 35.9259 13.7869H33.9073C33.7555 13.7869 33.692 13.7226 33.692 13.5736V4.24407C33.692 4.09503 33.7555 4.03076 33.9073 4.03076H35.7341C36.0556 4.03076 35.9259 4.45601 36.0997 4.45601C36.3564 4.45601 36.8724 4.03076 37.8617 4.03076C40.0541 4.03076 41.6864 5.56494 41.6864 7.78006V13.5736C41.6864 13.7226 41.6215 13.7869 41.4725 13.7869Z" fill="#7DC142"/>
<path d="M50.6728 13.7868H48.846C48.5438 13.7868 48.6735 13.3616 48.479 13.3616C48.221 13.3616 47.7049 13.7868 46.7377 13.7868C44.5025 13.7868 42.8909 12.2527 42.8909 10.0157V4.24403C42.8909 4.09499 42.9558 4.03072 43.1062 4.03072H45.1482C45.2072 4.02355 45.2663 4.04371 45.3083 4.08537C45.3504 4.12703 45.3707 4.18555 45.3635 4.24403V10.0157C45.3501 10.422 45.5058 10.816 45.7941 11.1053C46.0824 11.3946 46.4779 11.5538 46.8881 11.5457C47.3005 11.5528 47.6982 11.3941 47.9906 11.1059C48.283 10.8176 48.4452 10.4244 48.4403 10.0157V4.24403C48.4403 4.09499 48.5066 4.03072 48.657 4.03072H50.6783C50.7371 4.02401 50.7957 4.04437 50.8375 4.08597C50.8792 4.12757 50.8993 4.18582 50.8922 4.24403V13.5735C50.8867 13.7226 50.8218 13.7868 50.6728 13.7868Z" fill="#7DC142"/>
<path d="M58.732 4.54179C59.5267 5.11745 60 6.03221 60 6.28791C59.9944 6.36475 59.9443 6.4314 59.8717 6.45883L58.1084 7.30659C58.0748 7.32248 58.0379 7.32999 58.0007 7.32847C57.9152 7.32847 57.8931 7.28608 57.8283 7.2013C57.3771 6.54087 57.1384 5.98709 56.2608 5.98709H55.6372C54.8618 5.98709 54.4547 6.26056 54.4547 6.7952C54.4547 7.66894 55.6372 7.47888 57.3992 7.94515C59.1404 8.41415 59.9572 9.20312 59.9572 10.6088C59.9572 12.6106 58.5168 13.9957 56.2608 13.9957H55.6372C54.434 13.9957 53.5082 13.6539 52.8432 12.951C52.1767 12.2674 51.9187 11.6739 51.9187 11.4825C51.9187 11.4182 51.9615 11.3759 52.047 11.3335L53.8104 10.4816C53.8433 10.464 53.8807 10.4564 53.918 10.4597C53.9815 10.4597 54.0256 10.5226 54.0891 10.6088C54.5182 11.3116 54.7983 11.823 55.6372 11.823H56.2608C57.0335 11.823 57.5026 11.4401 57.5026 10.9068C57.5026 10.0563 56.2995 10.2464 54.5375 9.79929C52.817 9.37267 52.0222 8.56866 52.0222 7.11516C52.0222 5.17625 53.5041 3.81299 55.6331 3.81299H56.2567C57.2708 3.81709 58.0656 4.05228 58.732 4.54179Z" fill="#7DC142"/>
<path fill-rule="evenodd" clip-rule="evenodd" d="M23.5384 7.41485V9.65185C23.5384 11.8875 21.9047 13.4217 19.6695 13.4189C19.0311 13.4189 18.5983 13.2331 18.304 13.1067C18.1524 13.0416 18.0376 12.9923 17.9503 12.9923C17.8644 12.9923 17.8421 13.0767 17.8173 13.1705C17.7864 13.2875 17.7517 13.4189 17.5847 13.4189H15.7579C15.6075 13.4189 15.5426 13.3547 15.5426 13.2056V0.215709C15.5426 0.0666673 15.6075 0.00240146 15.7579 0.00240146H17.7779C17.8369 -0.00476993 17.8959 0.0153862 17.938 0.0570467C17.98 0.0987071 18.0003 0.157231 17.9931 0.215709V3.85835C17.9931 4.00603 18.0579 4.0908 18.1435 4.0908C18.2327 4.0908 18.3553 4.03999 18.5159 3.97349C18.8197 3.84762 19.2592 3.66556 19.8641 3.66556C21.9268 3.66556 23.5384 5.26263 23.5384 7.41485ZM20.6362 10.7438C20.9251 10.4539 21.0809 10.0591 21.0672 9.65185V7.41485C21.0672 6.57359 20.379 5.89162 19.5302 5.89162C18.6813 5.89162 17.9931 6.57359 17.9931 7.41485V9.65185C17.9879 10.0599 18.1491 10.4529 18.4403 10.7414C18.7315 11.03 19.128 11.1899 19.5398 11.1847C19.9508 11.1932 20.3473 11.0337 20.6362 10.7438Z" fill="#7DC142"/>
<path fill-rule="evenodd" clip-rule="evenodd" d="M32.3302 7.22332V9.86506C32.3302 12.1212 30.738 13.6349 28.3289 13.6349C25.9005 13.6349 24.3097 12.1212 24.3097 9.86506V7.22332C24.3097 4.96445 25.9005 3.45215 28.3289 3.45215C30.738 3.45215 32.3302 4.96445 32.3302 7.22332ZM29.1031 11.2222C29.5854 10.9399 29.8745 10.4199 29.8577 9.86506V7.22332C29.8745 6.66849 29.5854 6.14853 29.1031 5.8662C28.6208 5.58387 28.0218 5.58387 27.5395 5.8662C27.0573 6.14853 26.7682 6.66849 26.785 7.22332V9.86506C26.7682 10.4199 27.0573 10.9399 27.5395 11.2222C28.0218 11.5045 28.6208 11.5045 29.1031 11.2222Z" fill="#7DC142"/>
<path d="M41.2062 13.4216H39.1642C39.0152 13.4216 38.9489 13.3574 38.9489 13.2083V7.41483C38.9241 6.5917 38.2435 5.93722 37.4126 5.93722C36.5816 5.93722 35.9011 6.5917 35.8762 7.41483V13.2083C35.8762 13.3574 35.8114 13.4216 35.661 13.4216H33.641C33.4906 13.4216 33.4258 13.3574 33.4258 13.2083V3.87747C33.4258 3.72979 33.4906 3.66553 33.641 3.66553H35.4706C35.7934 3.66553 35.6637 4.09078 35.8362 4.09078C36.0928 4.09078 36.6089 3.66553 37.5982 3.66553C39.7906 3.66553 41.4242 5.19834 41.4242 7.41483V13.2083C41.4215 13.3574 41.3566 13.4216 41.2062 13.4216Z" fill="#7DC142"/>
<path d="M50.4051 13.4216H48.5783C48.2775 13.4216 48.4072 12.995 48.2127 12.995C47.956 12.995 47.4414 13.4216 46.4728 13.4216C44.2362 13.4216 42.6246 11.8874 42.6246 9.6518V3.87744C42.6246 3.72977 42.6895 3.6655 42.8399 3.6655H44.8819C44.9406 3.65832 44.9993 3.67832 45.0411 3.71973C45.0828 3.76114 45.103 3.81932 45.0958 3.87744V9.6518C45.0825 10.0589 45.2385 10.4535 45.5272 10.7433C45.816 11.0332 46.2123 11.1927 46.6232 11.1846C47.0342 11.1887 47.4294 11.0283 47.7195 10.7398C48.0096 10.4513 48.17 10.059 48.1644 9.6518V3.87744C48.1644 3.72977 48.2306 3.6655 48.3796 3.6655H50.3996C50.4583 3.65841 50.5171 3.6784 50.5591 3.71973C50.6011 3.76106 50.6216 3.81918 50.6148 3.87744V13.2083C50.6204 13.3573 50.5555 13.4216 50.4051 13.4216Z" fill="#7DC142"/>
<path d="M58.4657 4.17685C59.2618 4.75114 59.7351 5.66727 59.7351 5.92297C59.7281 6.00004 59.678 6.06667 59.6054 6.09525L57.8421 6.94575C57.8089 6.96142 57.7725 6.96893 57.7358 6.96763C57.6503 6.96763 57.6282 6.92387 57.5633 6.8391C57.1122 6.18003 56.8735 5.62488 55.9946 5.62488H55.3709C54.5969 5.62488 54.1898 5.89835 54.1898 6.43573C54.1898 7.3081 55.3709 7.11941 57.1342 7.58431C58.8741 8.05331 59.6909 8.84091 59.6909 10.2479C59.6909 12.2497 58.2505 13.6349 55.9946 13.6349H55.3709C54.1677 13.6349 53.2433 13.2944 52.5769 12.5902C51.9105 11.9065 51.6524 11.3131 51.6524 11.1203C51.6524 11.0574 51.6952 11.0136 51.7808 10.9726L53.5441 10.1194C53.5773 10.1028 53.6146 10.0957 53.6517 10.0989C53.7166 10.0989 53.758 10.1618 53.8242 10.2479C54.2533 10.9507 54.5334 11.4608 55.3709 11.4608H55.9946C56.7686 11.4608 57.2363 11.0779 57.2363 10.546C57.2363 9.69414 56.0332 9.88557 54.2698 9.43845C52.5507 9.01183 51.7559 8.20782 51.7559 6.75432C51.7559 4.81541 53.2392 3.45215 55.3668 3.45215H55.9904C57.0045 3.45215 57.7979 3.68733 58.4657 4.17685Z" fill="#7DC142"/>
</svg>
