<svg width="32" height="9" viewBox="0 0 32 9" fill="none" xmlns="http://www.w3.org/2000/svg">
<path d="M9.11753 1.04138C9.12396 1.21837 9.06787 1.39249 8.95771 1.53752L5.331 6.55706L5.41266 0.431152H0L1.78478 1.1759C2.29338 1.4568 2.54768 1.82164 2.52785 2.28227L2.72849 8.76872H5.3625L12.1085 0.432229H8.85856C9.04161 0.588771 9.137 0.813955 9.11753 1.04353V1.04138Z" fill="#0095D6"/>
<path fill-rule="evenodd" clip-rule="evenodd" d="M31.2616 0.430176L31.0283 0.677709L31.0365 0.673404L31.5416 8.14137L32 8.76236H28.6358L28.8947 8.32003C28.8866 7.84649 28.8504 7.2072 28.7862 6.4377H25.9866L25.3532 7.35572C25.0289 7.91214 24.8702 8.30173 24.8574 8.51698L24.9741 8.76236H22.2631C22.4054 8.63214 22.5279 8.51698 22.6503 8.38675L27.9172 0.926318C27.9819 0.824709 28.0403 0.719786 28.0922 0.612059C28.0945 0.579772 28.0583 0.529189 27.9487 0.430176H31.2616ZM28.7184 5.27645H28.7186V5.28183L28.7184 5.27645ZM28.7184 5.27645L28.6113 2.46748L26.7133 5.27645H28.7184Z" fill="#0095D6"/>
<path d="M20.7011 0.00055311C19.7171 -0.0136471 18.7513 0.245872 17.9294 0.745305C17.0359 1.1758 16.5786 1.71391 16.5424 2.39732C16.4981 3.17221 16.7687 3.84593 17.359 4.35606L19.1659 5.45812C19.8169 5.86817 20.1225 6.2287 20.0992 6.55695C20.0758 6.88521 19.8915 7.14781 19.5509 7.3609C19.2048 7.57473 18.7948 7.68313 18.3785 7.67085C17.7055 7.67085 16.5739 7.26189 15.0178 6.50852L14.9338 8.03139C16.1493 8.66852 17.3415 9 18.5139 9C19.6291 9 20.5856 8.73955 21.4302 8.15085C22.3284 7.61274 22.7903 6.967 22.83 6.26637C22.865 5.67552 22.5897 5.1331 21.9294 4.55839L20.2018 3.45633C19.6267 3.04414 19.3199 2.68145 19.3351 2.40163C19.3736 1.75589 19.8367 1.42764 20.7454 1.42764C21.3637 1.42764 22.2549 1.7236 23.4284 2.35104L23.895 0.74961C22.9124 0.254215 21.8091 -0.00174604 20.6894 0.00593426L20.7011 0.00055311Z" fill="#0095D6"/>
<path d="M13.03 8.76666C13.0102 8.42335 12.9495 8.11232 12.9285 7.78514L15.7457 1.04148L16.3593 0.430176H12.8235C12.855 0.579772 12.883 0.777799 12.9134 0.926318C12.9107 1.09337 12.8888 1.25968 12.848 1.42246L10.0484 8.0951L9.51413 8.76559L13.03 8.76666Z" fill="#0095D6"/>
<path d="M5.38583 2.67304L0 0.430176H5.41616L5.38583 2.67304Z" fill="#FFD520"/>
</svg>
