<svg width="41" height="19" viewBox="0 0 41 19" fill="none" xmlns="http://www.w3.org/2000/svg">
<path d="M28.076 3.07148C29.2938 3.07148 30.4296 3.04411 31.5636 3.08243C32.1707 3.10251 32.4478 3.40181 32.5499 4.02779C32.858 5.91121 33.1479 7.79462 33.445 9.68534C33.4578 9.76382 33.476 9.83864 33.5125 10.0303C33.631 9.81309 33.7039 9.69629 33.7586 9.57036C34.5553 7.74535 35.3538 5.92033 36.1396 4.09532C36.3456 3.61534 36.6756 3.18281 37.1715 3.16456C38.4294 3.09703 39.6928 3.14266 41 3.14266C40.918 3.31604 40.8505 3.47846 40.7666 3.63359C38.6725 7.59144 36.5735 11.5511 34.4696 15.5126C33.4797 17.3687 32.043 18.71 29.879 18.9327C28.5773 19.0677 27.2483 18.9582 25.8682 18.9582C26.0377 18.0457 26.1799 17.1332 26.3768 16.2335C26.4917 15.7097 26.8636 15.4688 27.416 15.4907C27.9684 15.5126 28.4862 15.4998 29.0222 15.4907C30.3986 15.4743 31.2354 14.3665 30.8635 13.0434C29.9775 9.90313 29.0933 6.76471 28.2109 3.62811C28.1671 3.46751 28.1325 3.31239 28.076 3.07148Z" fill="#455661"/>
<path d="M1.65174 5.93114H0C0.182311 4.94198 0.342745 4.01487 0.514118 3.04579C0.960781 3.04579 1.36004 3.02937 1.7593 3.04579C2.06559 3.06222 2.19685 2.96732 2.24608 2.64246C2.37005 1.77376 2.55236 0.912348 2.70368 0.0126156C3.50585 0.0126156 4.2752 -0.0220597 5.04091 0.0235656C5.80662 0.069191 6.11108 0.467045 6.03086 1.2299C5.97252 1.81026 5.84855 2.38514 5.75557 3.02207H8.03993C7.85762 4.02948 7.69901 4.96753 7.52946 5.93114H5.21957C5.00809 7.20865 4.77291 8.48616 4.60336 9.74542C4.52497 10.3404 4.91694 10.7291 5.59331 10.855C5.91783 10.9171 6.25146 10.9372 6.64343 10.9828C6.46111 11.9829 6.3025 12.9666 6.10561 13.943C6.08555 14.0397 5.85949 14.1656 5.74098 14.1565C4.94428 14.1017 4.12753 14.1017 3.35818 13.9138C1.45849 13.452 0.614389 12.0705 0.944373 10.1342C1.14856 8.93147 1.37098 7.73061 1.58246 6.52975C1.61346 6.35089 1.62439 6.16839 1.65174 5.93114Z" fill="#455661"/>
<path d="M7.45105 14.038C8.09279 10.388 8.73209 6.75073 9.36897 3.12625C10.255 3.12625 11.1064 3.08609 11.9505 3.14085C12.4373 3.1737 12.6797 3.54235 12.6797 4.0716C12.667 4.50231 12.5831 4.93119 12.5412 5.27246C13.1155 4.73773 13.6916 4.10445 14.3643 3.60257C15.0709 3.07656 15.9591 2.85692 16.8291 2.99302C16.6177 4.2097 16.4129 5.38683 16.2148 6.52442C15.615 6.57552 15.0571 6.5591 14.5302 6.68138C13.1993 6.9898 12.3625 7.88406 12.0489 9.178C11.7135 10.5577 11.502 11.9666 11.2449 13.3646C11.2048 13.5781 11.1647 13.7916 11.1192 14.038H7.45105Z" fill="#455661"/>
<path d="M22.8418 2.94176C22.6595 3.98567 22.3587 6.35089 22.3587 6.35089C22.3587 6.35089 22.0268 6.37827 21.9466 6.40017C21.077 6.64837 20.5246 7.20682 20.3496 8.07006C20.1582 9.01541 20.479 9.80382 21.2611 10.4024C21.314 10.4426 21.582 10.6634 21.582 10.6634C21.582 10.6634 21.1736 12.9355 20.9986 13.9831C18.2176 13.2008 16.4736 10.445 16.9549 7.59373C17.5146 4.2795 20.5319 2.67713 22.8418 2.94176Z" fill="#2EB7C5"/>
<path d="M22.211 14.1711C22.3787 13.1783 22.5756 12.2257 22.7397 11.2657C22.767 11.1124 22.8217 10.8186 22.8217 10.8186C22.921 10.8067 23.0196 10.7896 23.1171 10.7675C23.9384 10.5691 24.562 9.89889 24.7014 9.06472C24.8837 8.11207 24.581 7.33826 23.7898 6.75425C23.7172 6.72538 23.6413 6.70575 23.5637 6.69585C23.5637 6.69585 23.9484 4.28866 24.1107 3.28125C26.0632 3.55135 28.2674 5.86912 28.1799 8.6979C28.0632 12.4848 24.7141 14.5489 22.211 14.1711Z" fill="#2EB7C5"/>
</svg>
