<svg width="56" height="14" viewBox="0 0 56 14" fill="none" xmlns="http://www.w3.org/2000/svg">
<path fill-rule="evenodd" clip-rule="evenodd" d="M8.17564 13.6907H12.6371H12.6384V13.4868C12.4117 13.3301 12.2384 13.1099 12.1412 12.8551C12.0716 12.6172 12.0431 12.3694 12.057 12.1222V7.13574C12.057 5.60239 11.7943 4.55055 11.269 3.98021C10.4947 3.13891 8.93823 2.71826 6.59974 2.71826C2.6428 2.71737 0.664323 3.9118 0.664323 6.30155H4.81463C4.89796 5.6095 5.40288 5.26348 6.3294 5.26348C7.27041 5.26348 7.74091 5.55486 7.74091 6.13764C7.74091 6.63869 7.0698 6.97805 5.72757 7.15573C3.80479 7.40003 2.56672 7.63767 2.01334 7.86865C0.671116 8.41145 1.58495e-06 9.38157 1.58495e-06 10.779C-0.000904557 11.8237 0.38673 12.6379 1.1629 13.2216C1.86753 13.7377 2.77322 13.9958 3.87997 13.9958C5.55368 13.9958 6.91628 13.5139 7.96778 12.55L8.17564 13.6907ZM7.73955 8.96803C7.86363 10.7181 7.22739 11.5932 5.83082 11.5932H5.8281C4.91426 11.5932 4.45734 11.2947 4.45734 10.6977C4.44316 10.3152 4.65466 9.95893 5.00075 9.78223C5.20816 9.65963 5.637 9.53081 6.28728 9.39578C6.78587 9.30574 7.27287 9.1623 7.73955 8.96803Z" fill="#1D1D1B"/>
<path d="M11.5529 13.6907L15.4546 8.11253L11.8654 3.02344H16.6583L18.0291 5.68991L19.4813 3.02344H24.2131L20.4975 8.09254L24.2539 13.6907H19.4392L17.9041 10.6364L16.3268 13.6907H11.5529Z" fill="#1D1D1B"/>
<path fill-rule="evenodd" clip-rule="evenodd" d="M26.8649 9.31307H35.1031L35.1085 9.31707C35.1366 7.36352 34.5764 5.77598 33.428 4.55445C32.2796 3.33293 30.7091 2.72217 28.7166 2.72217C26.9451 2.72217 25.4856 3.23787 24.3381 4.26928C23.148 5.34245 22.553 6.74032 22.553 8.46289C22.553 10.1997 23.148 11.57 24.3381 12.5739C25.4593 13.5244 26.9256 13.9997 28.737 13.9997C30.1589 13.9997 31.3816 13.7416 32.405 13.2255C33.6232 12.6161 34.4048 11.7001 34.7499 10.4777H30.6213C30.3161 11.0996 29.7763 11.4105 29.0019 11.4105C28.4365 11.422 27.8904 11.2091 27.4872 10.8202C27.0714 10.427 26.8453 9.87924 26.8649 9.31307ZM30.7911 7.15563H26.869C26.8699 5.92078 27.5406 5.30336 28.881 5.30336C29.3871 5.30063 29.8719 5.50318 30.2205 5.86304C30.5842 6.19837 30.7906 6.66605 30.7911 7.15563Z" fill="#1D1D1B"/>
<path d="M34.1236 10.3726H38.2318C38.2146 10.7412 38.3763 11.0961 38.6679 11.3293C38.9754 11.5652 39.3577 11.6874 39.7479 11.6745C40.6608 11.6745 41.1173 11.3556 41.1173 10.7177C41.1173 10.2833 40.5431 9.95102 39.3947 9.72093C37.721 9.36558 36.6486 9.08041 36.1777 8.86542C35.032 8.30929 34.4591 7.43424 34.4591 6.24025C34.4591 5.00451 35.0333 4.07482 36.1818 3.45118C37.0947 2.96168 38.2363 2.71738 39.6066 2.71826C43.0093 2.71826 44.8075 3.83807 45.0013 6.07768H41.0752C40.9928 5.38474 40.5639 5.03872 39.7887 5.0396C38.9735 5.0396 38.566 5.29057 38.566 5.79251C38.566 6.15941 39.161 6.47034 40.3511 6.72531C42.0112 7.08066 43.1112 7.39159 43.651 7.65811C44.8401 8.24177 45.4347 9.11017 45.4347 10.2633C45.4347 11.4164 44.9574 12.3123 44.0028 12.9511C42.9939 13.6422 41.5203 13.9883 39.5822 13.9892C38.1168 13.9892 36.9271 13.7449 36.0133 13.2562C34.8658 12.6459 34.2363 11.6825 34.1249 10.3659L34.1236 10.3726Z" fill="#1D1D1B"/>
<path d="M44.6889 10.3726H48.7984C48.7812 10.7412 48.943 11.0961 49.2345 11.3293C49.5414 11.5654 49.9234 11.6876 50.3132 11.6745C51.2261 11.6745 51.6826 11.3556 51.6826 10.7177C51.6826 10.2833 51.1084 9.95102 49.96 9.72093C48.2863 9.36558 47.2139 9.08041 46.743 8.86542C45.5946 8.30929 45.0208 7.43424 45.0217 6.24025C45.0217 5.00451 45.5955 4.07482 46.743 3.45118C47.6577 2.96168 48.7993 2.71738 50.1678 2.71826C53.5705 2.71826 55.3692 3.83807 55.5639 6.07768H51.6418C51.5576 5.38474 51.1297 5.0396 50.3539 5.0396C49.5388 5.0396 49.1313 5.29057 49.1313 5.79251C49.1313 6.15941 49.7263 6.47034 50.9164 6.72531C52.5765 7.08066 53.6765 7.39159 54.2162 7.65811C55.4063 8.24177 56.0009 9.11017 56 10.2633C55.9991 11.4164 55.5209 12.3146 54.5654 12.9577C53.5556 13.6489 52.0825 13.9949 50.1461 13.9958C48.6789 13.9958 47.4888 13.7515 46.5759 13.2629C45.4284 12.6526 44.7989 11.6891 44.6875 10.3726H44.6889Z" fill="#1D1D1B"/>
<path d="M14.8868 0L17.9761 6.01523L21.2529 0H14.8868Z" fill="#FFD520"/>
</svg>
