<svg viewBox="0 0 262 88" fill="none" xmlns="http://www.w3.org/2000/svg">
<g clip-path="url(#clip0_1_2)">
<path d="M0 0V72V82.8C11.6 91.9 23.6 77.8 33 77.8C38 77.8 40.4 81.1 41.9 83.6C42.7 84.8 43.2 86.2 43.4 87.6C43.4 87.7 43.5 87.8 43.6 87.8H44.5C44.6 87.8 44.7 87.7 44.7 87.6C44.9 86.2 45.4 84.8 46.2 83.6C47.7 81.1 50.1 77.8 55.1 77.8C64.4 77.8 76.5 91.9 88.1 82.8V72V0H0Z" fill="#6A4DBB"/>
<path d="M108.3 9.7C108.3 7.9 109.8 6.5 111.5 6.5H111.6C113.4 6.5 114.8 7.9 114.8 9.7C114.8 11.5 113.4 12.9 111.6 12.9C109.8 12.9 108.4 11.5 108.3 9.7ZM108.9 15.3H114.3V36.8H108.9V15.3Z" fill="#6A4DBB"/>
<path d="M127.1 37.1C121.7 37.1 118 33.9 117.7 30H123.2C123.4 31.6 124.9 32.9 127.1 32.9C129.3 32.9 130.4 31.9 130.4 30.7C130.4 26.8 118.2 29.3 118.2 21.4C118.2 17.8 121.4 15 126.7 15C132 15 135 17.8 135.3 22.1H130.1C130 20.4 128.6 19.3 126.5 19.3C124.4 19.3 123.4 20.1 123.4 21.3C123.4 25.2 135.3 22.8 135.5 30.7C135.6 34.3 132.3 37.1 127.1 37.1Z" fill="#6A4DBB"/>
<path d="M141.1 19.8H138.5V15.4H141.1V10H146.5V15.3H151.3V19.8H146.5V30.2C146.5 31.6 147.1 32.2 148.8 32.2H151.3V36.8H148C143.9 36.8 141.1 35.1 141.1 30.1V19.8Z" fill="#6A4DBB"/>
<path d="M164.2 15C167 14.9 169.6 16.2 171.3 18.4V15.3H176.8V36.8H171.3V33.6C169.7 35.9 167 37.2 164.2 37.1C158.8 37.1 154.4 32.6 154.4 25.9C154.4 19.2 158.8 15 164.2 15ZM165.7 19.7C162.8 19.7 160 21.9 160 25.9C160 29.9 162.8 32.3 165.7 32.3C168.6 32.3 171.4 30 171.4 26C171.4 22 168.6 19.7 165.7 19.7Z" fill="#6A4DBB"/>
<path d="M196.4 24.9C196.4 21.4 194.5 19.6 191.6 19.6C188.7 19.6 186.8 21.5 186.8 24.9V36.8H181.4V15.3H186.8V18C188.4 16 190.8 14.9 193.3 15C198.3 15 201.9 18.3 201.9 24.2V36.8H196.5V24.9H196.4Z" fill="#6A4DBB"/>
<path d="M218.7 15C224.2 15 228.5 19.3 228.5 26C228.5 32.7 224.2 37.2 218.7 37.2C215.9 37.3 213.3 36 211.6 33.8V36.9H206.2V10H211.6V18.5C213.3 16.2 215.9 14.9 218.7 15ZM217.3 19.8C214.4 19.8 211.6 22.1 211.6 26.1C211.6 30.1 214.4 32.4 217.3 32.4C220.2 32.4 223 30 223 26C223 22 220.2 19.7 217.3 19.8Z" fill="#6A4DBB"/>
<path d="M252 36.8H246.5V34.1C245 36 242.6 37.2 240.1 37.1C235.1 37.1 231.5 33.8 231.5 28V15.3H236.9V27.1C236.9 30.6 238.8 32.4 241.7 32.4C244.6 32.4 246.5 30.5 246.5 27.1V15.3H251.9V36.8H252Z" fill="#6A4DBB"/>
<path d="M262 10H256.6V36.8H262V10Z" fill="#6A4DBB"/>
<path d="M108.9 45.6H114.3V60L121.5 50.9H128.6L119.1 61.7L128.6 72.4H121.6L114.3 63.2V72.4H108.9V45.6Z" fill="#6A4DBB"/>
<path d="M131.2 45.3C131.1 43.5 132.5 41.9 134.4 41.8C136.2 41.7 137.8 43.1 137.9 45C138 46.9 136.6 48.4 134.7 48.5H134.6C132.8 48.6 131.4 47.2 131.3 45.5C131.2 45.4 131.2 45.4 131.2 45.3ZM131.8 51H137.2V72.5H131.8V51Z" fill="#6A4DBB"/>
<path d="M143.1 55.4H140.5V51H143.1V45.6H148.5V51H153.3V55.5H148.5V65.8C148.5 67.2 149.1 67.8 150.8 67.8H153.3V72.4H150C145.9 72.4 143.1 70.7 143.1 65.7V55.4Z" fill="#6A4DBB"/>
<path d="M165 50.6C167.8 50.5 170.4 51.8 172.1 54V51H177.5V72.5H172.1V69.3C170.5 71.6 167.8 72.9 165 72.8C159.6 72.8 155.2 68.3 155.2 61.6C155.2 54.9 159.6 50.6 165 50.6ZM166.4 55.4C163.5 55.4 160.7 57.6 160.7 61.6C160.7 65.6 163.4 67.9 166.3 67.9C169.2 67.9 172 65.6 172 61.6C172 57.6 169.4 55.4 166.4 55.4Z" fill="#6A4DBB"/>
<path d="M193.8 50.6C199.3 50.6 203.6 54.9 203.6 61.6C203.6 68.3 199.3 72.8 193.8 72.8C191 72.8 188.4 71.6 186.7 69.4V77.8H181.3V51H186.7V54.1C188.4 51.9 191 50.6 193.8 50.6ZM192.4 55.4C189.5 55.4 186.7 57.7 186.7 61.7C186.7 65.7 189.4 68 192.4 68C195.4 68 198.1 65.7 198.1 61.6C198.1 57.5 195.3 55.4 192.4 55.4Z" fill="#6A4DBB"/>
<path d="M216.1 50.6C221.5 50.6 225.1 53.4 226.2 58.2H220.3C219.7 56.3 218 55.1 216 55.2C213 55.2 210.9 57.5 210.9 61.7C210.9 65.9 212.9 68.1 216 68.1C217.9 68.3 219.7 67 220.3 65.2H226.2C225.1 69.8 221.4 72.8 216.1 72.8C209.9 72.8 205.5 68.5 205.5 61.7C205.5 54.9 209.9 50.6 216.1 50.6Z" fill="#6A4DBB"/>
<path d="M234.2 51H228.8V72.5H234.2V51Z" fill="#6A4DBB"/>
<path d="M245.8 72.8C240.4 72.8 236.6 69.6 236.4 65.7H241.8C242 67.3 243.5 68.6 245.7 68.6C247.9 68.6 249 67.6 249 66.4C249 62.6 236.9 65 236.9 57.1C236.9 53.5 240.1 50.7 245.4 50.7C250.7 50.7 253.7 53.5 254 57.8H248.8C248.7 56.1 247.3 55 245.2 55C243.1 55 242.1 55.8 242.1 57C242.1 60.9 254 58.5 254.2 66.4C254.2 70 251 72.8 245.8 72.8Z" fill="#6A4DBB"/>
<path d="M262 51H256.6V72.5H262V51Z" fill="#6A4DBB"/>
<path d="M219.1 70.3H213.7V77.6H219.1V70.3Z" fill="#6A4DBB"/>
<path d="M78 28.3C78 28.4 78 28.4 78 28.3C75.3 27.8 71.5 27.3 69.5 28C67.7 28.8 66.6 30.7 66.8 32.6C67 35.8 70.4 38.8 72.5 41.2C75.2 44 76.6 47.8 76.5 51.7C76.3 54.4 75.3 56.9 73.6 58.9C71.7 61 69 61.7 66.3 61.9C62 62.2 57.3 59.5 53.3 59.5C50.5 59.4 47.9 61 46.6 63.5C45.9 64.6 45.5 65.9 45.4 67.2L45.2 70.2C45.2 70.4 45 70.6 44.7 70.6H43.4C43.2 70.6 43 70.4 42.9 70.2L42.7 67.2C42.5 62.9 38.9 59.6 34.6 59.5C27.7 59.5 18.6 69.4 10 62.8C9.9 62.7 9.9 62.7 9.9 62.6V45.9C9.9 45.7 10 45.6 10.2 45.6H10.3C12.4 46.7 21.9 51.1 32.3 43.5C32.4 43.4 32.5 43.3 32.5 43.1C32.5 42.9 32.3 42.7 32.1 42.7C24 42 16.3 38.9 10 33.8C9.9 33.7 9.8 33.5 9.9 33.4C9.9 33.4 9.9 33.4 10 33.3L40.3 11.9C42.1 10.7 44.2 10 46.4 10C48.4 9.9 50.3 10.9 51.5 12.5C54.3 16.7 52 20.2 50.6 21.9C49.2 23.6 48.2 26.3 51.1 28.1C52 28.6 53.1 28.8 54.1 28.7C54.1 28.7 54.1 28.7 54.2 28.7C55.2 28.5 56.2 28 56.8 27.1C57.7 25.7 58.1 23.7 58.9 22.4C60.9 19 63.5 18.1 66.9 18.3C71.4 18.5 72.1 21.9 72.2 23.7C72.2 24.3 72.6 24.8 73.2 24.9C74.4 25.1 75.6 25.5 76.7 26C77.7 26.4 78.2 27.4 78 28.3Z" fill="white"/>
</g>
<defs>
<clipPath id="clip0_1_2">
<rect width="262" height="87.8" fill="white"/>
</clipPath>
</defs>
</svg>
