<svg width="64" height="10" viewBox="0 0 64 10" fill="none" xmlns="http://www.w3.org/2000/svg">
<path fill-rule="evenodd" clip-rule="evenodd" d="M28.135 4.9937C28.135 6.91278 27.8268 8.79251 26.1316 9.47733C25.3425 9.80006 23.9632 10 22.0707 10C20.1782 10 18.7851 9.80006 17.9976 9.47733C16.3146 8.79251 15.9941 6.91278 15.9941 4.9937C15.9941 3.07462 16.3023 1.21537 17.9976 0.524244C18.7851 0.209383 20.1782 0 22.0707 0C23.9632 0 25.3425 0.201511 26.1316 0.524244C27.8191 1.21537 28.135 3.07462 28.135 4.9937ZM38.0198 6.60579C39.1332 7.49612 40.1924 8.45509 41.1914 9.47733C41.242 9.52613 41.2583 9.60158 41.2325 9.66759C41.2066 9.73361 41.1439 9.77677 41.0743 9.77645H36.6467C36.6029 9.77594 36.5615 9.75648 36.5326 9.72292C35.5816 8.61826 33.2337 6.56384 33.201 6.53522L33.2007 6.53495C33.1735 6.50663 33.131 6.50079 33.0975 6.52078C33.0726 6.53778 33.0572 6.56583 33.0558 6.59635V9.60327C33.0558 9.69718 32.9813 9.7733 32.8894 9.7733H29.4897C29.3975 9.7733 29.3226 9.69743 29.3217 9.60327V0.294395C29.3237 0.206395 29.39 0.133923 29.4758 0.125945C29.4758 0.125945 37.1598 -0.125945 38.6131 0.308564C40.2529 0.799748 40.5719 2.02771 40.5719 3.36902C40.5719 4.59383 39.6904 6.14767 38.0537 6.45309L37.8657 6.48457L38.0198 6.60579ZM33.0558 2.92821V4.65995C33.0558 4.65995 33.0558 4.68986 33.1344 4.73552C33.5983 4.74654 34.0668 4.74654 34.5399 4.74654C34.9668 4.74654 35.3953 4.74181 35.8144 4.72922C36.4093 4.7119 36.6852 4.40491 36.6852 3.6886C36.6852 3.125 36.4109 2.86209 35.8406 2.84635C35.4215 2.83375 34.9668 2.82273 34.5399 2.82273C34.3049 2.82273 34.0687 2.82709 33.8333 2.83143C33.5995 2.83575 33.3664 2.84005 33.136 2.84005C33.1146 2.84107 33.0943 2.85003 33.079 2.86524C33.0622 2.88151 33.0537 2.90471 33.0558 2.92821ZM22.0908 3.11398C23.7845 3.11398 24.1143 3.59729 24.1143 5.05982C24.1143 6.52393 23.786 7.00724 22.0908 7.00724C20.3955 7.00724 20.0534 6.52236 20.0534 5.05982C20.0534 3.59729 20.3971 3.11398 22.0908 3.11398ZM56.3915 6.53338V3.54219C56.3905 3.49668 56.4242 3.45816 56.4685 3.45403C56.9155 3.41625 57.5566 3.39263 58.1376 3.39263C59.9391 3.39263 60.0701 3.75472 60.0701 5.05667C60.0701 6.35863 59.9391 6.72544 58.1376 6.72544C57.535 6.72544 56.5271 6.66719 56.5271 6.66719C56.3961 6.66247 56.3915 6.61052 56.3915 6.53338ZM61.9965 0.617128C63.6702 1.33974 64 3.08722 64 5.0063C64 6.92695 63.6856 8.69805 61.9965 9.38287C61.0241 9.78589 58.9729 9.91971 58.002 9.91971C56.2689 9.92462 54.5368 9.83581 52.813 9.65365C52.7363 9.63575 52.6812 9.56712 52.6789 9.48678V0.527393C52.6762 0.436083 52.7439 0.35857 52.833 0.351071C52.833 0.351071 54.7456 0.154282 58.002 0.0991814C58.9729 0.0834383 60.8823 0.13539 61.9965 0.617128ZM42.2116 0.392003C42.2112 0.345656 42.2289 0.301041 42.2607 0.267974C42.2924 0.234906 42.3358 0.216096 42.3812 0.21568H45.7716C45.8175 0.215218 45.8616 0.23397 45.8937 0.267575C45.9257 0.30118 45.9428 0.34671 45.9412 0.393577V6.41058C45.9436 6.45692 45.9821 6.49266 46.0275 6.49087H51.5755C51.6213 6.49126 51.6649 6.51056 51.6966 6.54436C51.7282 6.57816 51.7451 6.6236 51.7435 6.67034V9.59698C51.7431 9.64249 51.725 9.68597 51.6932 9.71786C51.6614 9.74974 51.6185 9.76742 51.5739 9.767H42.3827C42.2906 9.76446 42.2171 9.68791 42.2163 9.59383L42.2116 0.392003ZM15.6184 0.286325C15.5882 0.243464 15.5403 0.217361 15.4886 0.21568L11.5988 0.221977C11.5206 0.224082 11.4536 0.279639 11.4355 0.357368L10.537 4.8961C10.5139 5.01102 10.4322 5.01102 10.4106 4.8961L9.56916 0.358942C9.55317 0.279632 9.48507 0.22254 9.4058 0.221977H6.30969C6.22663 0.221353 6.15513 0.281774 6.14017 0.365239L5.25402 4.89452C5.23245 5.00945 5.13844 5.00945 5.11686 4.89452L4.28466 0.365239C4.27365 0.280559 4.20181 0.218047 4.11822 0.220403H0.169867C0.118901 0.220298 0.0705947 0.243622 0.0383205 0.283916C0.0060479 0.324211 -0.00676652 0.3772 0.00342645 0.428212L2.38138 9.63791C2.40215 9.71717 2.47212 9.77255 2.55244 9.7733H6.59018C6.6705 9.77453 6.74064 9.718 6.75816 9.63791L7.76297 5.38728C7.79533 5.25976 7.8616 5.26133 7.89242 5.38728L8.9296 9.63791C8.94865 9.717 9.01785 9.77278 9.09758 9.7733H13.069C13.1487 9.76976 13.2177 9.71564 13.2417 9.63791L15.6427 0.434509C15.6576 0.383939 15.6486 0.329185 15.6184 0.286325Z" fill="#782B8F"/>
</svg>
